<svg width="58" height="58" viewBox="0 0 58 58" fill="none" xmlns="http://www.w3.org/2000/svg">
<path fill-rule="evenodd" clip-rule="evenodd" d="M49.2909 57.7812C53.6595 57.7812 57.1993 54.2414 57.1993 49.8728V8.74931C57.1993 4.38073 53.6595 0.840942 49.2909 0.840942H8.1674C3.8004 0.840942 0.259033 4.38073 0.259033 8.74931V49.8728C0.259033 54.2414 3.8004 57.7812 8.1674 57.7812H49.2909ZM38.5829 28.9157C40.4967 29.4376 41.9835 30.4183 43.0116 31.8418C44.0397 33.2653 44.5458 35.0051 44.5458 37.0613C44.5458 40.7782 43.407 43.562 41.1294 45.4442C38.836 47.2947 35.467 48.2595 30.9909 48.2912H14.494V10.331H29.2827C34.0119 10.331 36.7956 11.5331 39.263 13.3204C41.7304 15.1077 42.9641 17.7174 42.9641 21.118C42.9641 23.0793 42.5213 24.7559 41.6514 26.1477C40.1962 28.3305 38.5829 28.9157 38.5829 28.9157ZM30.7062 16.6577H23.9841V25.3569H30.7062C33.1103 25.3569 35.0558 23.4114 35.0558 21.0073C35.0558 18.6032 33.1103 16.6577 30.7062 16.6577ZM23.9841 41.9645H31.8924C34.518 41.9645 36.6375 39.845 36.6375 37.2195C36.6375 34.5939 34.518 32.4744 31.8924 32.4744H23.9841V41.9645Z" fill="#B9BFC1"/>
</svg>
