<svg width="47" height="66" viewBox="0 0 47 66" fill="none" xmlns="http://www.w3.org/2000/svg">
<path fill-rule="evenodd" clip-rule="evenodd" d="M18.9334 6.88816C18.8546 7.9771 18.4514 8.83436 17.7239 9.45992C17.0011 10.0855 16.0465 10.3983 14.8602 10.3983C13.5628 10.3983 12.541 9.96269 11.795 9.09153C11.0536 8.21574 10.6829 7.01559 10.6829 5.49106V4.87245C10.6829 3.89935 10.8543 3.0421 11.1972 2.30069C11.5401 1.55928 12.029 0.991635 12.6638 0.597761C13.3033 0.199254 14.0447 0 14.888 0C16.0558 0 16.9964 0.312782 17.71 0.938346C18.4236 1.56391 18.836 2.44202 18.9473 3.57267H16.862C16.8111 2.9193 16.628 2.44665 16.3129 2.15472C16.0025 1.85816 15.5275 1.70988 14.888 1.70988C14.193 1.70988 13.6717 1.9601 13.3241 2.46055C12.9812 2.95637 12.8051 3.7279 12.7959 4.77514V5.53972C12.7959 6.6333 12.9604 7.43263 13.2894 7.93771C13.623 8.4428 14.1466 8.69534 14.8602 8.69534C15.5043 8.69534 15.9839 8.54938 16.299 8.25745C16.6188 7.96088 16.8018 7.50445 16.8481 6.88816H18.9334ZM25.5504 7.60408C25.5504 7.21021 25.4114 6.90901 25.1334 6.70049C24.8554 6.48733 24.3549 6.26491 23.632 6.03322C22.9092 5.79689 22.3369 5.5652 21.9152 5.33815C20.766 4.71722 20.1914 3.88081 20.1914 2.82894C20.1914 2.28215 20.3444 1.7956 20.6502 1.36929C20.9606 0.938346 21.4032 0.602395 21.9778 0.361437C22.557 0.120479 23.2057 0 23.924 0C24.6468 0 25.2909 0.132064 25.8563 0.396191C26.4216 0.655684 26.8595 1.02407 27.17 1.50135C27.4851 1.97864 27.6426 2.52079 27.6426 3.12782H25.5574C25.5574 2.66444 25.4114 2.30532 25.1195 2.05046C24.8276 1.79097 24.4175 1.66122 23.8892 1.66122C23.3795 1.66122 22.9833 1.77011 22.7006 1.9879C22.418 2.20106 22.2766 2.48372 22.2766 2.83589C22.2766 3.16489 22.4412 3.4406 22.7702 3.66303C23.1038 3.88545 23.5927 4.09397 24.2368 4.28859C25.423 4.64539 26.2872 5.08792 26.8294 5.61618C27.3715 6.14443 27.6426 6.80243 27.6426 7.59018C27.6426 8.46597 27.3113 9.15409 26.6486 9.65454C25.986 10.1504 25.094 10.3983 23.9726 10.3983C23.1941 10.3983 22.4852 10.2569 21.8457 9.97427C21.2062 9.68698 20.7174 9.29542 20.3791 8.7996C20.0455 8.30378 19.8787 7.72919 19.8787 7.07583H21.9708C21.9708 8.19257 22.6381 8.75095 23.9726 8.75095C24.4684 8.75095 24.8554 8.65132 25.1334 8.45207C25.4114 8.24818 25.5504 7.96552 25.5504 7.60408ZM33.8913 6.70049C34.1693 6.90901 34.3083 7.21021 34.3083 7.60408C34.3083 7.96552 34.1693 8.24818 33.8913 8.45207C33.6133 8.65132 33.2263 8.75095 32.7305 8.75095C31.396 8.75095 30.7287 8.19257 30.7287 7.07583H28.6366C28.6366 7.72919 28.8034 8.30378 29.137 8.7996C29.4753 9.29542 29.9641 9.68698 30.6036 9.97427C31.2431 10.2569 31.952 10.3983 32.7305 10.3983C33.8519 10.3983 34.7439 10.1504 35.4065 9.65454C36.0692 9.15409 36.4005 8.46597 36.4005 7.59018C36.4005 6.80243 36.1294 6.14443 35.5873 5.61618C35.0451 5.08792 34.1809 4.64539 32.9947 4.28859C32.3506 4.09397 31.8617 3.88545 31.528 3.66303C31.199 3.4406 31.0345 3.16489 31.0345 2.83589C31.0345 2.48372 31.1759 2.20106 31.4585 1.9879C31.7412 1.77011 32.1374 1.66122 32.6471 1.66122C33.1754 1.66122 33.5855 1.79097 33.8774 2.05046C34.1693 2.30532 34.3153 2.66444 34.3153 3.12782H36.4005C36.4005 2.52079 36.243 1.97864 35.9278 1.50135C35.6174 1.02407 35.1795 0.655684 34.6142 0.396191C34.0488 0.132064 33.4047 0 32.6819 0C31.9636 0 31.3149 0.120479 30.7357 0.361437C30.1611 0.602395 29.7185 0.938346 29.4081 1.36929C29.1023 1.7956 28.9493 2.28215 28.9493 2.82894C28.9493 3.88081 29.5239 4.71722 30.6731 5.33815C31.0948 5.5652 31.6671 5.79689 32.3899 6.03322C33.1128 6.26491 33.6133 6.48733 33.8913 6.70049ZM42.387 60.2901L46.4342 15.0043H0.565674L4.6129 60.2901L23.4999 65.6178L42.387 60.2901ZM17.8349 44.3069H12.4386L12.8444 51.6325L23.4999 55.0976L34.1555 51.6325L35.1041 36.3152L35.7786 25.6598H11.0895L11.4953 30.9875H30.1083L29.7078 36.3152H17.2921L17.5661 41.643H29.4338L29.0333 47.6367L23.4999 49.4993L17.9666 47.6367L17.8349 44.3069Z" fill="#B9BFC1"/>
</svg>
