<svg width="38" height="56" viewBox="0 0 38 56" fill="none" xmlns="http://www.w3.org/2000/svg">
<path d="M12.35 0.876953C6.5873 0.876953 1.9 5.55575 1.9 11.308C1.9 14.4523 3.30697 17.2692 5.51816 19.1831C2.237 20.9443 0 24.4046 0 28.377C0 31.9057 1.77015 35.023 4.46426 36.9114C1.77015 38.7999 0 41.9171 0 45.4459C0 51.1982 4.6873 55.877 10.45 55.877C16.2127 55.877 20.9 51.1982 20.9 45.4459V35.0149V21.739H27.55C33.3127 21.739 38 17.0602 38 11.308C38 5.55575 33.3127 0.876953 27.55 0.876953H12.35ZM12.35 4.67006H27.55C31.217 4.67006 34.2 7.64764 34.2 11.308C34.2 14.9683 31.217 17.9459 27.55 17.9459H20.9H12.35C8.683 17.9459 5.7 14.9683 5.7 11.308C5.7 7.64764 8.683 4.67006 12.35 4.67006ZM10.45 21.739H12.35H17.1V35.0149H10.45C6.783 35.0149 3.8 32.0373 3.8 28.377C3.8 24.7166 6.783 21.739 10.45 21.739ZM28.5 21.739C26.4844 21.739 24.5513 22.5383 23.126 23.961C21.7007 25.3837 20.9 27.3132 20.9 29.3252C20.9 31.3372 21.7007 33.2668 23.126 34.6895C24.5513 36.1122 26.4844 36.9114 28.5 36.9114C30.5156 36.9114 32.4487 36.1122 33.874 34.6895C35.2993 33.2668 36.1 31.3372 36.1 29.3252C36.1 27.3132 35.2993 25.3837 33.874 23.961C32.4487 22.5383 30.5156 21.739 28.5 21.739ZM10.45 38.808H17.1V45.4459C17.1 49.1063 14.117 52.0839 10.45 52.0839C6.783 52.0839 3.8 49.1063 3.8 45.4459C3.8 41.7856 6.783 38.808 10.45 38.808Z" fill="#B9BFC1"/>
</svg>
