<svg width="53" height="53" viewBox="0 0 53 53" fill="none" xmlns="http://www.w3.org/2000/svg">
<path d="M51.2838 23.0089L29.8578 1.58297C28.9492 0.66991 27.7525 0.213379 26.5557 0.213379C25.359 0.213379 24.1623 0.66991 23.2536 1.58297L19.0163 5.82029L24.2598 11.0637C26.0017 10.0399 28.2711 10.2615 29.7648 11.7552C31.2585 13.2489 31.4756 15.5182 30.4518 17.2557L35.6066 22.4105C37.3485 21.3867 39.6178 21.6083 41.1115 23.102C42.8845 24.8749 42.8845 27.7471 41.1115 29.52C39.3386 31.2929 36.4664 31.2929 34.6935 29.52C33.1998 28.0263 32.9782 25.7569 34.0021 24.015L28.8473 18.8602C28.4794 19.0774 28.0938 19.237 27.6904 19.3389V33.2786C29.6451 33.7839 31.0945 35.5436 31.0945 37.6578C31.0945 40.1665 29.0644 42.1965 26.5557 42.1965C24.047 42.1965 22.017 40.1665 22.017 37.6578C22.017 35.5436 23.4664 33.7839 25.4211 33.2786V19.3389C24.6631 19.1439 23.9407 18.7671 23.3467 18.1732C21.853 16.6795 21.6358 14.4102 22.6597 12.6727L17.4118 7.42479L1.82772 23.0089C0.00159898 24.8306 0.00159898 27.7914 1.82772 29.6131L23.2536 51.039C24.1623 51.9521 25.359 52.4086 26.5557 52.4086C27.7525 52.4086 28.9492 51.9521 29.8578 51.039L51.2838 29.6131C53.1099 27.7914 53.1099 24.8306 51.2838 23.0089Z" fill="#B9BFC1"/>
</svg>
