<svg width="34" height="34" viewBox="0 0 34 34" fill="none" xmlns="http://www.w3.org/2000/svg">
<path fill-rule="evenodd" clip-rule="evenodd" d="M0 16.9999C0 7.68194 7.55328 0.128662 16.8713 0.128662C26.1893 0.128662 33.7426 7.68194 33.7426 16.9999C33.7426 24.4967 28.8491 30.8437 22.0845 33.0412H21.7992C21.4085 32.9696 21.0891 32.6195 21.0891 32.1858V27.2898C21.0891 26.1687 20.6446 25.1555 19.9309 24.4006C24.8624 23.8084 27.6217 21.5594 27.6217 16.4382C27.6217 14.4895 26.962 12.8732 25.8359 11.6062C25.9582 11.3321 26.0856 10.9643 26.1488 10.502C26.2863 9.50269 26.1397 8.88221 26.0005 8.29302C25.9928 8.2605 25.9852 8.22807 25.9776 8.19568C25.8325 7.57651 25.6612 7.14123 25.6612 7.14123C25.6612 7.14123 24.8835 7.06193 24.2247 7.28632C24.1673 7.30585 24.1106 7.32498 24.0545 7.34396C23.4652 7.54292 22.9278 7.7244 22.1815 8.16953C21.7994 8.39729 21.4147 8.64699 21.1102 8.84945C19.8086 8.4884 18.3771 8.30282 16.8713 8.30282C15.352 8.30282 13.9079 8.48924 12.597 8.85282C12.2916 8.64952 11.9044 8.39814 11.5197 8.16869C10.7735 7.72355 10.236 7.54208 9.64681 7.34311C9.59062 7.32414 9.53397 7.30501 9.47662 7.28548C8.81779 7.06109 8.04003 7.14038 8.04003 7.14038C8.04003 7.14038 7.86878 7.57566 7.72369 8.19484C7.7161 8.22723 7.70844 8.25965 7.70076 8.29217C7.56155 8.88136 7.41494 9.50185 7.55245 10.5011C7.6174 10.9752 7.749 11.3498 7.87469 11.6256C6.76962 12.8851 6.12176 14.4912 6.12176 16.4373C6.12176 21.4844 8.84816 23.7881 13.8159 24.3963C13.2364 25.0088 12.8475 25.7933 12.7167 26.6664C12.3903 26.8098 12.0141 26.9447 11.6522 26.9987C10.7209 27.1396 9.73643 26.9987 9.26235 26.7178C8.78827 26.4369 8.22561 25.8042 7.80383 25.1884C7.44784 24.6688 6.93411 24.0657 6.46847 23.8531C5.85351 23.5722 5.25542 23.4667 4.92221 23.519C4.58816 23.5722 4.43041 23.8177 4.50043 23.994C4.57045 24.1694 4.9045 24.4335 5.25626 24.6266C5.60803 24.8198 6.15297 25.347 6.46931 25.8565C6.69955 26.2278 6.80895 26.4966 6.94029 26.8192C7.01009 26.9907 7.08608 27.1774 7.18971 27.4028C7.39976 27.86 8.11848 28.4311 8.63052 28.7382C9.07002 29.0022 9.94817 29.1524 10.898 29.1954C11.2262 29.2106 12.0014 29.1144 12.6552 29.0216V32.185C12.6552 32.6213 12.3318 32.9731 11.9374 33.0412H11.6598C11.6585 33.041 11.6573 33.0407 11.656 33.0405C4.89253 30.8424 0 24.4959 0 16.9999ZM11.656 33.0405C11.6542 33.0402 11.6523 33.0398 11.6505 33.0395C13.2912 33.5912 15.0433 33.8713 16.8713 33.8713C18.6985 33.8713 20.4505 33.5912 22.093 33.0412C21.9932 33.0595 21.8941 33.0586 21.7992 33.0412H11.9374C11.8476 33.0567 11.754 33.0575 11.6598 33.0412H11.6581C11.6574 33.0409 11.6567 33.0407 11.656 33.0405ZM5.95052 24.0851C5.90665 24.1719 5.97667 24.2951 6.10658 24.3618C6.23649 24.4284 6.3782 24.4124 6.42207 24.3255C6.46594 24.2386 6.39592 24.1154 6.26601 24.0488C6.1361 23.9821 5.99438 23.9982 5.95052 24.0851ZM6.80083 24.9463C6.91387 25.0493 7.06065 25.0729 7.12898 24.9986C7.19731 24.9244 7.16103 24.7802 7.04799 24.6772C6.93496 24.5743 6.78818 24.5507 6.71985 24.6249C6.65152 24.6992 6.68779 24.8434 6.80083 24.9463ZM7.43941 25.9266C7.53304 26.0573 7.67898 26.1138 7.76502 26.0531C7.85107 25.9924 7.84432 25.8363 7.75153 25.7055C7.65789 25.5748 7.51196 25.5183 7.42591 25.579C7.33987 25.6397 7.34577 25.7958 7.43941 25.9266ZM8.30997 26.857C8.45506 26.9456 8.6204 26.9414 8.67861 26.8469C8.73681 26.7524 8.66595 26.6039 8.52086 26.5154C8.37576 26.4268 8.21043 26.431 8.15222 26.5255C8.09401 26.62 8.16487 26.7684 8.30997 26.857ZM9.24464 27.3733C9.22945 27.4897 9.36274 27.6019 9.54241 27.6238C9.72209 27.6458 9.879 27.569 9.89334 27.4534C9.90852 27.337 9.77524 27.2248 9.59556 27.2029C9.41672 27.1809 9.25898 27.2569 9.24464 27.3733ZM10.6019 27.5816C10.5943 27.7048 10.7436 27.8145 10.9351 27.8254C11.1266 27.8364 11.2877 27.7453 11.2953 27.6213C11.3029 27.4981 11.1536 27.3885 10.9621 27.3775C10.7706 27.3665 10.6095 27.4585 10.6019 27.5816ZM11.8799 27.4568C11.8799 27.5875 12.0453 27.6938 12.2494 27.6938C12.4527 27.6938 12.6189 27.5875 12.6189 27.4568C12.6189 27.326 12.4536 27.2197 12.2494 27.2197C12.0453 27.2197 11.8799 27.326 11.8799 27.4568Z" fill="#4A4A4A"/>
</svg>
