<svg width="47" height="66" viewBox="0 0 47 66" fill="none" xmlns="http://www.w3.org/2000/svg">
<path fill-rule="evenodd" clip-rule="evenodd" d="M10.7174 10.2593H12.8026V0.139038H10.7174V4.23996H6.65125V0.139038H4.56604V10.2593H6.65125V5.92203H10.7174V10.2593ZM18.9401 1.82806H22.0401V0.139038H13.7966V1.82806H16.8549V10.2593H18.9401V1.82806ZM25.9603 0.139038L28.5599 7.47899L31.1456 0.139038H33.8841V10.2593H31.792V7.49289L32.0005 2.71775L29.2689 10.2593H27.837L25.1123 2.7247L25.3209 7.49289V10.2593H23.2357V0.139038H25.9603ZM42.2181 8.58415H37.7904V0.139038H35.7052V10.2593H42.2181V8.58415ZM44.9063 15.0043C45.2204 15.0043 45.5214 15.1332 45.7308 15.361C45.9445 15.5888 46.0492 15.894 46.0187 16.2034L42.0925 59.5834C42.0489 60.039 41.7304 60.4172 41.2854 60.5461L23.3907 65.5748C23.2903 65.6049 23.19 65.6178 23.0853 65.6178C22.9806 65.6178 22.8759 65.6049 22.7799 65.5748L4.89823 60.5461C4.45326 60.4172 4.13044 60.039 4.09117 59.5834L0.160606 16.2034C0.130068 15.894 0.234767 15.5888 0.448528 15.361C0.657926 15.1332 0.958935 15.0043 1.27303 15.0043H44.9063ZM15.3114 30.3181H36.321L36.8052 24.9671H9.37847L10.8573 41.2566H29.8907L29.2407 48.3398L23.1464 49.6206L16.9386 48.3398L16.703 45.7223H11.263L11.8694 52.4659L22.9719 55.7796L23.0809 55.814L34.3142 52.4702L35.8149 35.9185H15.8131L15.3114 30.3181Z" fill="#B9BFC1"/>
</svg>
