<svg width="56" height="56" viewBox="0 0 56 56" fill="none" xmlns="http://www.w3.org/2000/svg">
<path d="M5.67395 0.631714C2.89344 0.631714 0.641357 2.8838 0.641357 5.66431V50.9577C0.641357 53.7382 2.89344 55.9903 5.67395 55.9903H50.9673C53.7478 55.9903 55.9999 53.7382 55.9999 50.9577V5.66431C55.9999 2.8838 53.7478 0.631714 50.9673 0.631714H5.67395ZM40.047 13.8374C41.6121 13.8374 42.6812 14.8351 42.6812 16.1964C42.6812 17.5577 41.6121 18.5554 40.047 18.5554C38.4995 18.5554 37.4177 17.5577 37.4177 16.1964C37.4177 14.8351 38.4995 13.8374 40.047 13.8374ZM20.2508 15.6116H25.2392L34.0609 40.4354H29.2987L27.2001 34.0906H18.0687L15.9308 40.4354H11.4437L20.2508 15.6116ZM22.5017 20.3394L19.1008 30.5766H26.168L22.7966 20.3394H22.5017ZM37.9337 21.6173H42.1799V40.4354H37.9337V21.6173Z" fill="#B9BFC1"/>
</svg>
