<svg width="51" height="51" viewBox="0 0 51 51" fill="none" xmlns="http://www.w3.org/2000/svg">
<path d="M47.4031 0.00427246H3.21513C1.44045 0.00427246 0 1.44473 0 3.2194V47.4027C0 49.1774 1.44045 50.6178 3.21513 50.6178H47.3984C49.1731 50.6178 50.6135 49.1774 50.6135 47.4074V3.2194C50.6135 1.44473 49.1731 0.00427246 47.4031 0.00427246ZM27.7169 38.7882C27.7169 43.6039 24.8925 45.7975 20.7689 45.7975C17.0406 45.7975 14.3527 43.2979 13.2559 40.9771L17.0454 38.6847C17.775 39.9792 18.8859 40.9771 20.4864 40.9771C22.0163 40.9771 22.8966 40.3793 22.8966 38.0539V22.9009H27.7169V38.7882ZM38.172 45.7975C33.9024 45.7975 31.4781 43.6462 30.1271 40.9771L33.7424 38.567C34.7262 40.1769 35.7995 41.7162 38.0684 41.7162C39.9749 41.7162 40.9729 40.7653 40.9729 39.4473C40.9729 37.875 39.9373 37.3148 37.8425 36.3969L36.6939 35.9026C33.3752 34.4904 31.1674 32.7204 31.1674 28.9734C31.1674 25.5276 33.7989 22.9009 37.9037 22.9009C40.8269 22.9009 42.9264 23.9177 44.4422 26.582L40.8646 28.8839C40.0738 27.467 39.2264 26.9115 37.9037 26.9115C36.5574 26.9115 35.7053 27.7683 35.7053 28.8839C35.7053 30.2632 36.5574 30.8187 38.5298 31.6754L39.6783 32.1697C43.5902 33.8408 45.7932 35.5496 45.7932 39.3908C45.7932 43.5285 42.5404 45.7975 38.172 45.7975Z" fill="#B9BFC1"/>
</svg>
