<svg width="34" height="34" viewBox="0 0 34 34" fill="none" xmlns="http://www.w3.org/2000/svg">
<path d="M30.8844 0H3.11556C1.41667 0 0 1.41667 0 3.11556V30.8844C0 32.5833 1.41667 34 3.11556 34H30.8844C32.5833 34 34 32.5833 34 30.8844V3.11556C34 1.41667 32.5833 0 30.8844 0ZM9.91667 28.3333H4.25V12.75H9.91667V28.3333ZM7.08333 10.9072C5.38444 10.9072 4.25 9.77279 4.25 8.35612C4.25 6.80111 5.38444 5.66667 7.08333 5.66667C8.78223 5.66667 9.91667 6.80111 9.91667 8.21777C9.91667 9.77279 8.78223 10.9072 7.08333 10.9072ZM29.75 28.3333H24.0833V19.8333C24.0833 17.5645 22.5228 17 22.1022 17C21.6761 17 19.8333 17.2822 19.8333 19.8333C19.8333 20.1156 19.8333 28.3333 19.8333 28.3333H14.1667V12.75H19.8333V15.0189C20.6855 13.7406 22.1022 12.75 24.7917 12.75C27.4811 12.75 29.75 14.875 29.75 19.8333V28.3333Z" fill="#4A4A4A"/>
</svg>
