<svg width="57" height="56" viewBox="0 0 57 56" fill="none" xmlns="http://www.w3.org/2000/svg">
<path d="M5.77356 0.631714C2.99305 0.631714 0.740967 2.8838 0.740967 5.66431V50.9577C0.740967 53.7382 2.99305 55.9903 5.77356 55.9903H51.0669C53.8474 55.9903 56.0995 53.7382 56.0995 50.9577V5.66431C56.0995 2.8838 53.8474 0.631714 51.0669 0.631714H5.77356ZM10.8062 15.7098H20.8173C25.7719 15.7098 29.1624 19.0991 29.1624 24.1041C29.1624 29.0234 25.6482 32.3951 20.6256 32.3951H15.2441V40.5337H10.8062V15.7098ZM15.2441 19.4253V28.714H19.6329C22.7984 28.714 24.6556 27.0632 24.6556 24.1041C24.6556 21.0619 22.8458 19.4253 19.6476 19.4253H15.2441ZM39.0064 21.3322C43.4779 21.3322 46.2851 23.3112 46.5946 26.7334H42.5892C42.2797 25.4098 41.0215 24.566 39.0261 24.566C37.0835 24.566 35.6202 25.4975 35.6202 26.8563C35.6202 27.9232 36.5146 28.5762 38.4068 29.004L41.7242 29.7608C45.32 30.5686 46.9878 32.1189 46.9878 34.8868C46.9878 38.5027 43.6674 40.9122 38.972 40.9121C34.2766 40.9121 31.3177 38.8791 30.9906 35.4569H35.2074C35.62 36.8509 36.9414 37.6783 39.0752 37.6783C41.2241 37.6783 42.7219 36.733 42.7219 35.3389C42.7219 34.272 41.916 33.5986 40.1269 33.2011L36.7899 32.4295C33.1765 31.6041 31.4772 29.9355 31.4772 27.0971C31.4772 23.69 34.5676 21.3322 39.0064 21.3322Z" fill="#B9BFC1"/>
</svg>
