<svg width="58" height="53" viewBox="0 0 58 53" fill="none" xmlns="http://www.w3.org/2000/svg">
<path fill-rule="evenodd" clip-rule="evenodd" d="M41.2683 0.21735C40.3036 0.184782 39.2938 0.353648 38.2813 0.683199C36.2565 1.3423 34.1346 2.62673 31.9571 4.40514C31.1037 5.1021 30.2426 5.89879 29.3785 6.74409C28.5336 5.92025 27.6901 5.14494 26.8556 4.46337C24.6798 2.68639 22.5637 1.40147 20.5434 0.743856C18.5231 0.0862458 16.5129 0.065869 14.8619 1.02288C13.211 1.97989 12.2237 3.73666 11.7808 5.8221C11.3378 7.90753 11.3866 10.391 11.8315 13.1713C11.986 14.1371 12.2064 15.1502 12.4574 16.1824C11.514 16.4694 10.5979 16.7712 9.74838 17.1044C7.18456 18.1098 5.06316 19.3125 3.51835 20.7438C1.97354 22.1751 0.976074 23.9122 0.976074 25.8196C0.976074 27.7271 1.97354 29.4618 3.51835 30.893C5.06316 32.3243 7.18456 33.5295 9.74838 34.5349C10.6568 34.8911 11.6403 35.2119 12.6556 35.5151C12.2904 36.8851 11.9945 38.2146 11.7928 39.4748C11.3476 42.2574 11.3006 44.7412 11.7445 46.8314C12.1884 48.9215 13.1762 50.6883 14.8354 51.65C16.4945 52.6117 18.5137 52.5881 20.5386 51.929C22.5634 51.2699 24.6829 49.9879 26.8604 48.2095C27.7059 47.519 28.5612 46.7312 29.4172 45.8948C30.2777 46.7363 31.1364 47.5277 31.9861 48.2216C34.1618 49.9986 36.2804 51.2811 38.3007 51.9387C40.3209 52.5963 42.3311 52.6167 43.9821 51.6597C45.6331 50.7027 46.618 48.9459 47.0609 46.8605C47.5038 44.775 47.455 42.294 47.0101 39.5137C46.8079 38.25 46.5119 36.9161 46.145 35.5418C47.1938 35.2312 48.2084 34.9018 49.144 34.5349C51.7078 33.5295 53.8292 32.3243 55.374 30.893C56.9188 29.4618 57.9163 27.7271 57.9163 25.8196C57.9163 23.9122 56.9188 22.1751 55.374 20.7438C53.8292 19.3125 51.7078 18.1098 49.144 17.1044C48.2823 16.7665 47.3521 16.4607 46.3939 16.1703C46.6469 15.1318 46.8716 14.1114 47.0271 13.1398C47.4723 10.3572 47.5193 7.87102 47.0754 5.78085C46.6315 3.69068 45.6413 1.92639 43.9821 0.964649C43.1525 0.483779 42.233 0.249918 41.2683 0.21735ZM41.1547 2.74555C41.7601 2.76217 42.2765 2.90681 42.7182 3.16287C43.6017 3.67501 44.2548 4.67176 44.6032 6.31221C44.9516 7.95266 44.9396 10.1691 44.5283 12.7395C44.3875 13.6195 44.183 14.5522 43.9507 15.5079C41.4198 14.8963 38.6465 14.4425 35.6907 14.1758C34.2069 12.112 32.6822 10.2317 31.1451 8.56381C31.9581 7.76694 32.766 7.02167 33.5544 6.37772C35.5659 4.73492 37.4703 3.61708 39.0595 3.09979C39.8541 2.84115 40.5493 2.72893 41.1547 2.74555ZM17.6749 2.75283C18.2837 2.73576 18.9804 2.84768 19.7773 3.10707C21.3711 3.62585 23.2788 4.74319 25.292 6.38742C26.0647 7.01845 26.8544 7.74954 27.6507 8.52742C26.1021 10.209 24.5649 12.1055 23.0712 14.188C20.1279 14.4595 17.3659 14.9158 14.8474 15.5297C14.6169 14.5794 14.4124 13.6515 14.2723 12.7759C13.8606 10.2032 13.8504 7.98651 14.1998 6.34132C14.5492 4.69614 15.2076 3.69187 16.0992 3.17501C16.5451 2.91657 17.066 2.7699 17.6749 2.75283ZM29.4172 10.352C30.4251 11.4533 31.4333 12.6584 32.4331 13.955C31.4507 13.9139 30.4562 13.8895 29.4462 13.8895C28.4161 13.8895 27.4027 13.9147 26.4013 13.9575C27.4014 12.6598 28.409 11.4541 29.4172 10.352ZM29.4462 16.3983C31.1288 16.3983 32.7688 16.4677 34.364 16.5851C35.4616 18.168 36.5343 19.8472 37.5563 21.6246C38.4544 23.1863 39.2671 24.7456 40.0068 26.2855C39.2593 27.8458 38.433 29.4262 37.5225 31.0095C36.7211 32.4032 35.8841 33.7269 35.0334 35.0032C33.2315 35.1544 31.3644 35.2385 29.4462 35.2385C27.4818 35.2385 25.5728 35.1494 23.7309 34.991C22.8943 33.7331 22.0715 32.4295 21.2829 31.058C20.3745 29.4783 19.5522 27.9008 18.8058 26.3437C19.5553 24.7778 20.3813 23.1915 21.295 21.6027C22.3117 19.8347 23.3812 18.1652 24.4728 16.59C26.0852 16.47 27.7442 16.3983 29.4462 16.3983ZM37.5491 16.8957C39.5888 17.1512 41.5038 17.506 43.2861 17.9317C42.7573 19.6723 42.1059 21.4904 41.3166 23.3666C40.8041 22.3748 40.2734 21.3796 39.6999 20.3823C39.0049 19.1737 38.2811 18.0215 37.5491 16.8957ZM21.2104 16.9151C20.4939 18.0199 19.7888 19.1497 19.1079 20.3338C18.5271 21.3438 17.9853 22.3525 17.467 23.3569C16.6846 21.492 16.0371 19.6843 15.512 17.9536C17.281 17.527 19.1849 17.1736 21.2104 16.9151ZM45.7342 18.5917C46.6113 18.8581 47.4584 19.1362 48.2354 19.4409C50.5988 20.3677 52.4683 21.4652 53.68 22.5878C54.8917 23.7104 55.4175 24.781 55.4175 25.8196C55.4175 26.8582 54.8917 27.9288 53.68 29.0515C52.4683 30.1741 50.5988 31.2716 48.2354 32.1984C47.3719 32.537 46.4232 32.844 45.4369 33.1349C44.7334 30.9501 43.8353 28.6707 42.7666 26.3437C43.9954 23.6722 44.9881 21.0674 45.7342 18.5917ZM13.1171 18.6038C13.8547 21.0548 14.8346 23.6337 16.0461 26.2782C14.9703 28.6187 14.0678 30.9111 13.3612 33.1082C12.4097 32.825 11.4931 32.5262 10.657 32.1984C8.29358 31.2716 6.42408 30.1741 5.2124 29.0515C4.00072 27.9288 3.47485 26.8582 3.47485 25.8196C3.47485 24.781 4.00072 23.7104 5.2124 22.5878C6.42408 21.4652 8.29358 20.3677 10.657 19.4409C11.4221 19.1409 12.255 18.8668 13.1171 18.6038ZM29.4462 20.113C26.0441 20.113 23.2597 22.9086 23.2597 26.3243C23.2597 29.74 26.0441 32.5356 29.4462 32.5356C32.8483 32.5356 35.6327 29.74 35.6327 26.3243C35.6327 22.9086 32.8483 20.113 29.4462 20.113ZM17.496 29.2626C18.0166 30.272 18.5579 31.285 19.1418 32.3003C19.5985 33.0946 20.065 33.8678 20.5386 34.6271C18.8769 34.3958 17.2974 34.1029 15.8141 33.7561C16.2858 32.3056 16.8501 30.7999 17.496 29.2626ZM41.348 29.2626C41.9965 30.8036 42.5612 32.3116 43.0348 33.7658C41.5468 34.1122 39.9624 34.4041 38.2958 34.6344C38.7756 33.8658 39.2493 33.0829 39.712 32.2784C40.2915 31.2707 40.8307 30.2647 41.348 29.2626ZM15.1012 36.1678C17.3405 36.7004 19.7676 37.1095 22.3414 37.3761C24.0594 39.871 25.8493 42.1129 27.6507 44.0727C26.8451 44.8612 26.0468 45.6012 25.2655 46.2393C23.2539 47.8822 21.3472 48.9976 19.758 49.5149C18.1688 50.0321 16.9827 49.9639 16.0992 49.4518C15.2157 48.9396 14.5651 47.9429 14.2167 46.3024C13.8683 44.662 13.8779 42.448 14.2892 39.8776C14.4758 38.7115 14.7546 37.4629 15.1012 36.1678ZM43.7501 36.1775C44.0996 37.4805 44.3793 38.7337 44.5669 39.9067C44.9786 42.4793 44.9888 44.6961 44.6394 46.3413C44.29 47.9864 43.6365 48.9931 42.7448 49.51C41.8531 50.0269 40.6557 50.0943 39.0619 49.5755C37.4681 49.0567 35.5604 47.9394 33.5472 46.2952C32.7602 45.6525 31.9563 44.9064 31.1451 44.1115C32.9585 42.144 34.761 39.8908 36.4906 37.3809C39.0708 37.1162 41.5047 36.7095 43.7501 36.1775ZM25.5699 37.6309C26.8404 37.7004 28.1275 37.7473 29.4462 37.7473C30.7212 37.7473 31.9667 37.7032 33.1968 37.6381C31.9393 39.3415 30.6576 40.89 29.3809 42.2845C28.1051 40.8871 26.8258 39.3357 25.5699 37.6309Z" fill="#B9BFC1"/>
</svg>
