<svg width="59" height="45" viewBox="0 0 59 45" fill="none" xmlns="http://www.w3.org/2000/svg">
<path d="M50.5582 25.9595C48.5136 25.9699 46.7416 26.4573 45.2564 27.1827C44.7133 26.108 44.1632 25.1621 44.0708 24.4588C43.9631 23.6383 43.8379 23.1486 43.9678 22.1702C44.0977 21.1918 44.6688 19.8073 44.6595 19.704C44.6513 19.6007 44.5319 19.1028 43.3522 19.0935C42.1724 19.0854 41.1635 19.3187 41.0442 19.6274C40.9248 19.9361 40.6977 20.6313 40.5573 21.3566C40.3501 22.4174 38.2025 26.2009 36.9817 28.1796C36.5826 27.4067 36.2432 26.7266 36.173 26.1881C36.0653 25.3676 35.9401 24.8778 36.07 23.8994C36.1999 22.9211 36.7711 21.5365 36.7617 21.4332C36.7535 21.33 36.6341 20.8321 35.4544 20.8228C34.2746 20.8147 33.2658 21.0479 33.1464 21.3566C33.027 21.6654 32.9006 22.3872 32.6595 23.0859C32.4172 23.7846 29.5615 30.0945 28.8136 31.7298C28.432 32.5631 28.1008 33.2327 27.8667 33.69C27.8656 33.6888 27.8656 33.6877 27.8656 33.6877C27.8656 33.6877 27.8515 33.7178 27.8258 33.7701C27.6256 34.1589 27.5063 34.3747 27.5063 34.3747C27.5063 34.3747 27.5074 34.3782 27.5098 34.3828C27.3506 34.6683 27.1809 34.9341 27.0966 34.9341C27.0381 34.9341 26.9199 34.1728 27.1224 33.1294C27.5472 30.9406 28.5678 27.5262 28.5584 27.409C28.5538 27.3487 28.7481 26.7544 27.8913 26.4422C27.0592 26.1405 26.7619 26.6442 26.6858 26.6453C26.6121 26.6465 26.5571 26.8229 26.5571 26.8229C26.5571 26.8229 27.4852 22.9838 24.7875 22.9838C23.1021 22.9838 20.766 24.8128 19.6143 26.4701C18.8887 26.8624 17.3344 27.7038 15.6853 28.6021C15.0522 28.9468 14.4061 29.2996 13.7928 29.635C13.7507 29.5897 13.7097 29.5433 13.6664 29.498C10.3964 26.0384 4.35247 23.5919 4.60878 18.9415C4.70241 17.2506 5.29463 12.7986 16.2237 7.39851C25.176 2.97443 32.3435 4.19187 33.5818 6.89019C35.3514 10.7444 29.7511 17.9086 20.4547 18.9415C16.9119 19.3349 15.0475 17.9736 14.5828 17.4664C14.0948 16.9326 14.0222 16.9082 13.8396 17.0092C13.5424 17.1728 13.7308 17.644 13.8396 17.9249C14.117 18.6409 15.2558 19.9117 17.1987 20.5431C18.9074 21.099 23.0658 21.4042 28.0961 19.4754C33.7292 17.3144 38.1275 11.3038 36.8366 6.27973C35.5223 1.16975 26.9784 -0.509586 18.8922 2.33844C14.0796 4.03403 8.87017 6.69521 5.12375 10.1688C0.669253 14.3004 -0.0400026 17.8958 0.252595 19.3976C1.29307 24.7362 8.71216 28.2121 11.6838 30.7886C11.5375 30.8686 11.3994 30.9441 11.2741 31.0126C9.78424 31.7437 4.12892 34.6788 2.71392 37.7798C1.10932 41.2975 2.96907 43.8217 4.20149 44.1618C8.01695 45.2144 11.9331 43.3204 14.0374 40.2077C16.1418 37.0962 15.8843 33.0447 14.9187 31.1948C14.907 31.1716 14.893 31.1495 14.8813 31.1263C15.2663 30.9 15.6584 30.6714 16.047 30.445C16.8054 30.004 17.5498 29.592 18.1958 29.2427C17.8342 30.2245 17.5697 31.4014 17.4316 33.1016C17.27 35.0989 18.0952 37.68 19.1754 38.6955C19.6506 39.1423 20.2229 39.1528 20.5858 39.1528C21.8428 39.1528 22.4162 38.1164 23.0471 36.8897C23.8219 35.3856 24.5089 33.6354 24.5089 33.6354C24.5089 33.6354 23.6463 38.3647 25.9965 38.3647C26.852 38.3647 27.7134 37.2634 28.0973 36.7028C28.0985 36.7086 28.0985 36.7121 28.0985 36.7121C28.0985 36.7121 28.1207 36.6761 28.164 36.6018C28.253 36.4672 28.3033 36.3813 28.3033 36.3813C28.3033 36.3813 28.3056 36.3721 28.308 36.357C28.6521 35.7651 29.4152 34.4142 30.5598 32.1859C32.038 29.3077 33.4565 25.703 33.4565 25.703C33.4565 25.703 33.5888 26.585 34.0207 28.0415C34.2746 28.8992 34.8153 29.8474 35.2414 30.7561C34.8984 31.2284 34.6878 31.4988 34.6878 31.4988C34.6878 31.4988 34.6901 31.5035 34.6936 31.5128C34.4198 31.8737 34.1119 32.2625 33.7901 32.6432C32.6232 34.0219 31.2328 35.5956 31.0467 36.0506C30.8278 36.5856 30.8793 36.9802 31.303 37.2959C31.612 37.5268 32.1632 37.5628 32.7391 37.5245C33.7877 37.4549 34.5263 37.1961 34.8903 37.0394C35.4579 36.8409 36.1192 36.5276 36.7395 36.075C37.8841 35.2405 38.5746 34.0463 38.5091 32.4644C38.4728 31.5928 38.1919 30.7294 37.8373 29.9135C37.9415 29.7649 38.0456 29.6164 38.1498 29.4644C39.9545 26.8473 41.3543 23.9726 41.3543 23.9726C41.3543 23.9726 41.4866 24.8546 41.9184 26.3111C42.1373 27.0492 42.5692 27.8535 42.9566 28.6427C41.2595 30.0098 40.2073 31.5986 39.841 32.6408C39.1657 34.5685 39.6947 35.4424 40.6872 35.6409C41.1366 35.7314 41.7721 35.5272 42.2497 35.3264C42.8442 35.1314 43.5581 34.8053 44.2253 34.319C45.3699 33.4846 46.4712 32.3159 46.4045 30.734C46.3741 30.0145 46.1775 29.2996 45.9106 28.6125C47.349 28.0183 49.2123 27.6875 51.5847 27.9626C56.6747 28.5522 57.673 31.7031 57.4823 33.0215C57.2915 34.3411 56.2241 35.0653 55.8671 35.2846C55.5102 35.504 55.4013 35.5794 55.4317 35.7419C55.475 35.9786 55.6401 35.9693 55.9444 35.9183C56.3634 35.8486 58.6164 34.8459 58.7135 32.411C58.8352 29.3263 55.8484 25.9316 50.5582 25.9595ZM11.3292 39.0739C9.6438 40.8971 7.2878 41.5865 6.27776 41.0062C5.18695 40.3795 5.61883 37.6939 7.68808 35.7593C8.94858 34.5801 10.5766 33.4939 11.6569 32.8242C11.9026 32.678 12.2631 32.4621 12.702 32.201C12.7746 32.1604 12.8155 32.1371 12.8155 32.1371L12.8144 32.1348C12.8986 32.0849 12.9864 32.0327 13.0754 31.9793C13.8279 34.7345 13.0988 37.1601 11.3292 39.0739ZM23.61 30.7944C23.0225 32.2137 21.7936 35.8452 21.0457 35.6502C20.4032 35.4831 20.0123 32.7221 20.917 30.0063C21.3723 28.6392 22.3449 27.0051 22.9172 26.3703C23.8371 25.3502 24.8507 25.0159 25.0964 25.4302C25.4113 25.9571 23.9787 29.9042 23.61 30.7944ZM33.7573 35.5956C33.508 35.7245 33.2798 35.8057 33.1745 35.743C33.096 35.6966 33.2775 35.5272 33.2775 35.5272C33.2775 35.5272 34.5462 34.1728 35.0471 33.5565C35.3373 33.1979 35.6756 32.772 36.0419 32.2961C36.0454 32.3437 36.0466 32.3913 36.0466 32.4377C36.0419 34.0602 34.4619 35.1546 33.7573 35.5956ZM41.5743 33.8281C41.3882 33.697 41.4198 33.2733 42.0296 31.9549C42.2696 31.4373 42.8161 30.5646 43.7677 29.7313C43.8777 30.0737 43.9455 30.4021 43.9432 30.7085C43.9303 32.7499 42.4615 33.5124 41.5743 33.8281Z" fill="#B9BFC1"/>
</svg>
